STARTFONT 2.1
FONT -toniz4-limepie-Bold-R-normal--13-80-96-96-C-80-ISO10646-1
SIZE 13 96 96
FONTBOUNDINGBOX 7 13 0 -3
STARTPROPERTIES 21
FACE_NAME "limepie"
FAMILY_NAME "limepie"
WEIGHT_NAME "Bold"
SLANT "R"
PIXEL_SIZE 13
POINT_SIZE 80
RESOLUTION_X 96
RESOLUTION_Y 96
CHARSET_ENCODING "1"
CHARSET_REGISTRY "ISO10646"
CAP_HEIGHT 7
WEIGHT 10
X_HEIGHT 0
QUAD_WIDTH 7
DEFAULT_CHAR 8223
FONT_DESCENT 3
FONT_ASCENT 10
_GBDFED_INFO "Edited with gbdfed 1.6."
SPACING "C"
FOUNDRY "toniz4"
COPYRIGHT "Copyright (c) 2021 Cássio Ribeiro Alves De Ávila"
ENDPROPERTIES
CHARS 222
STARTCHAR char32
ENCODING 32
SWIDTH 403 0
DWIDTH 7 0
BBX 7 13 0 -3
BITMAP
00
00
00
00
00
00
00
00
00
00
00
00
00
ENDCHAR
STARTCHAR char33
ENCODING 33
SWIDTH 403 0
DWIDTH 7 0
BBX 7 13 0 -3
BITMAP
00
00
30
30
30
30
30
00
30
30
00
00
00
ENDCHAR
STARTCHAR char34
ENCODING 34
SWIDTH 403 0
DWIDTH 7 0
BBX 7 13 0 -3
BITMAP
00
D8
D8
D8
00
00
00
00
00
00
00
00
00
ENDCHAR
STARTCHAR char35
ENCODING 35
SWIDTH 403 0
DWIDTH 7 0
BBX 7 13 0 -3
BITMAP
00
00
68
68
FC
68
68
FC
68
68
00
00
00
ENDCHAR
STARTCHAR char36
ENCODING 36
SWIDTH 403 0
DWIDTH 7 0
BBX 7 13 0 -3
BITMAP
00
00
30
78
B4
B0
78
34
B4
78
30
00
00
ENDCHAR
STARTCHAR char37
ENCODING 37
SWIDTH 403 0
DWIDTH 7 0
BBX 7 13 0 -3
BITMAP
00
00
40
EC
4C
18
30
60
C8
DC
08
00
00
ENDCHAR
STARTCHAR char38
ENCODING 38
SWIDTH 403 0
DWIDTH 7 0
BBX 7 13 0 -3
BITMAP
00
00
70
D8
C0
70
FC
D8
D8
7C
00
00
00
ENDCHAR
STARTCHAR char39
ENCODING 39
SWIDTH 403 0
DWIDTH 7 0
BBX 7 13 0 -3
BITMAP
00
30
30
30
00
00
00
00
00
00
00
00
00
ENDCHAR
STARTCHAR char40
ENCODING 40
SWIDTH 403 0
DWIDTH 7 0
BBX 7 13 0 -3
BITMAP
00
18
30
30
60
60
60
60
60
30
30
18
00
ENDCHAR
STARTCHAR char41
ENCODING 41
SWIDTH 403 0
DWIDTH 7 0
BBX 7 13 0 -3
BITMAP
00
60
30
30
18
18
18
18
18
30
30
60
00
ENDCHAR
STARTCHAR char42
ENCODING 42
SWIDTH 403 0
DWIDTH 7 0
BBX 7 13 0 -3
BITMAP
00
00
00
00
48
30
FC
30
48
00
00
00
00
ENDCHAR
STARTCHAR char43
ENCODING 43
SWIDTH 403 0
DWIDTH 7 0
BBX 7 13 0 -3
BITMAP
00
00
00
00
30
30
FC
30
30
00
00
00
00
ENDCHAR
STARTCHAR char44
ENCODING 44
SWIDTH 403 0
DWIDTH 7 0
BBX 7 13 0 -3
BITMAP
00
00
00
00
00
00
00
00
30
30
60
00
00
ENDCHAR
STARTCHAR char45
ENCODING 45
SWIDTH 403 0
DWIDTH 7 0
BBX 7 13 0 -3
BITMAP
00
00
00
00
00
00
FC
00
00
00
00
00
00
ENDCHAR
STARTCHAR char46
ENCODING 46
SWIDTH 403 0
DWIDTH 7 0
BBX 7 13 0 -3
BITMAP
00
00
00
00
00
00
00
00
30
30
00
00
00
ENDCHAR
STARTCHAR char47
ENCODING 47
SWIDTH 403 0
DWIDTH 7 0
BBX 7 13 0 -3
BITMAP
00
0C
0C
18
18
30
30
60
60
C0
C0
00
00
ENDCHAR
STARTCHAR char48
ENCODING 48
SWIDTH 403 0
DWIDTH 7 0
BBX 7 13 0 -3
BITMAP
00
00
78
CC
DC
DC
EC
EC
CC
78
00
00
00
ENDCHAR
STARTCHAR char49
ENCODING 49
SWIDTH 403 0
DWIDTH 7 0
BBX 7 13 0 -3
BITMAP
00
00
30
70
30
30
30
30
30
78
00
00
00
ENDCHAR
STARTCHAR char50
ENCODING 50
SWIDTH 403 0
DWIDTH 7 0
BBX 7 13 0 -3
BITMAP
00
00
78
CC
0C
18
30
60
C0
FC
00
00
00
ENDCHAR
STARTCHAR char51
ENCODING 51
SWIDTH 403 0
DWIDTH 7 0
BBX 7 13 0 -3
BITMAP
00
00
78
CC
0C
38
0C
0C
CC
78
00
00
00
ENDCHAR
STARTCHAR char52
ENCODING 52
SWIDTH 403 0
DWIDTH 7 0
BBX 7 13 0 -3
BITMAP
00
00
18
38
78
58
D8
FC
18
18
00
00
00
ENDCHAR
STARTCHAR char53
ENCODING 53
SWIDTH 403 0
DWIDTH 7 0
BBX 7 13 0 -3
BITMAP
00
00
FC
C0
C0
F8
0C
0C
CC
78
00
00
00
ENDCHAR
STARTCHAR char54
ENCODING 54
SWIDTH 403 0
DWIDTH 7 0
BBX 7 13 0 -3
BITMAP
00
00
78
CC
C0
F8
CC
CC
CC
78
00
00
00
ENDCHAR
STARTCHAR char55
ENCODING 55
SWIDTH 403 0
DWIDTH 7 0
BBX 7 13 0 -3
BITMAP
00
00
FC
0C
18
18
30
30
60
60
00
00
00
ENDCHAR
STARTCHAR char56
ENCODING 56
SWIDTH 403 0
DWIDTH 7 0
BBX 7 13 0 -3
BITMAP
00
00
78
CC
CC
78
CC
CC
CC
78
00
00
00
ENDCHAR
STARTCHAR char57
ENCODING 57
SWIDTH 403 0
DWIDTH 7 0
BBX 7 13 0 -3
BITMAP
00
00
78
CC
CC
CC
7C
0C
CC
78
00
00
00
ENDCHAR
STARTCHAR char58
ENCODING 58
SWIDTH 403 0
DWIDTH 7 0
BBX 7 13 0 -3
BITMAP
00
00
00
00
60
60
00
00
60
60
00
00
00
ENDCHAR
STARTCHAR char59
ENCODING 59
SWIDTH 403 0
DWIDTH 7 0
BBX 7 13 0 -3
BITMAP
00
00
00
00
60
60
00
00
60
60
C0
00
00
ENDCHAR
STARTCHAR char60
ENCODING 60
SWIDTH 403 0
DWIDTH 7 0
BBX 7 13 0 -3
BITMAP
00
00
00
0C
18
30
60
30
18
0C
00
00
00
ENDCHAR
STARTCHAR char61
ENCODING 61
SWIDTH 403 0
DWIDTH 7 0
BBX 7 13 0 -3
BITMAP
00
00
00
00
00
FC
00
FC
00
00
00
00
00
ENDCHAR
STARTCHAR char62
ENCODING 62
SWIDTH 403 0
DWIDTH 7 0
BBX 7 13 0 -3
BITMAP
00
00
00
C0
60
30
18
30
60
C0
00
00
00
ENDCHAR
STARTCHAR char63
ENCODING 63
SWIDTH 403 0
DWIDTH 7 0
BBX 7 13 0 -3
BITMAP
00
00
78
CC
CC
18
30
00
30
30
00
00
00
ENDCHAR
STARTCHAR char64
ENCODING 64
SWIDTH 403 0
DWIDTH 7 0
BBX 7 13 0 -3
BITMAP
00
00
78
CC
DC
F4
F4
DC
C0
7C
00
00
00
ENDCHAR
STARTCHAR char65
ENCODING 65
SWIDTH 403 0
DWIDTH 7 0
BBX 7 13 0 -3
BITMAP
00
00
78
CC
CC
CC
FC
CC
CC
CC
00
00
00
ENDCHAR
STARTCHAR char66
ENCODING 66
SWIDTH 403 0
DWIDTH 7 0
BBX 7 13 0 -3
BITMAP
00
00
F8
CC
CC
F8
CC
CC
CC
F8
00
00
00
ENDCHAR
STARTCHAR char67
ENCODING 67
SWIDTH 403 0
DWIDTH 7 0
BBX 7 13 0 -3
BITMAP
00
00
78
CC
C0
C0
C0
C0
CC
78
00
00
00
ENDCHAR
STARTCHAR char68
ENCODING 68
SWIDTH 403 0
DWIDTH 7 0
BBX 7 13 0 -3
BITMAP
00
00
F0
D8
CC
CC
CC
CC
D8
F0
00
00
00
ENDCHAR
STARTCHAR char69
ENCODING 69
SWIDTH 403 0
DWIDTH 7 0
BBX 7 13 0 -3
BITMAP
00
00
FC
C0
C0
F8
C0
C0
C0
FC
00
00
00
ENDCHAR
STARTCHAR char70
ENCODING 70
SWIDTH 403 0
DWIDTH 7 0
BBX 7 13 0 -3
BITMAP
00
00
FC
C0
C0
F8
C0
C0
C0
C0
00
00
00
ENDCHAR
STARTCHAR char71
ENCODING 71
SWIDTH 403 0
DWIDTH 7 0
BBX 7 13 0 -3
BITMAP
00
00
78
CC
C0
C0
DC
CC
CC
78
00
00
00
ENDCHAR
STARTCHAR char72
ENCODING 72
SWIDTH 403 0
DWIDTH 7 0
BBX 7 13 0 -3
BITMAP
00
00
CC
CC
CC
FC
CC
CC
CC
CC
00
00
00
ENDCHAR
STARTCHAR char73
ENCODING 73
SWIDTH 403 0
DWIDTH 7 0
BBX 7 13 0 -3
BITMAP
00
00
78
30
30
30
30
30
30
78
00
00
00
ENDCHAR
STARTCHAR char74
ENCODING 74
SWIDTH 403 0
DWIDTH 7 0
BBX 7 13 0 -3
BITMAP
00
00
78
18
18
18
18
18
18
F0
00
00
00
ENDCHAR
STARTCHAR char75
ENCODING 75
SWIDTH 403 0
DWIDTH 7 0
BBX 7 13 0 -3
BITMAP
00
00
CC
D8
F0
F0
D8
D8
CC
CC
00
00
00
ENDCHAR
STARTCHAR char76
ENCODING 76
SWIDTH 403 0
DWIDTH 7 0
BBX 7 13 0 -3
BITMAP
00
00
C0
C0
C0
C0
C0
C0
C0
FC
00
00
00
ENDCHAR
STARTCHAR char77
ENCODING 77
SWIDTH 403 0
DWIDTH 7 0
BBX 7 13 0 -3
BITMAP
00
00
CC
FC
FC
EC
CC
CC
CC
CC
00
00
00
ENDCHAR
STARTCHAR char78
ENCODING 78
SWIDTH 403 0
DWIDTH 7 0
BBX 7 13 0 -3
BITMAP
00
00
CC
EC
EC
FC
FC
DC
DC
CC
00
00
00
ENDCHAR
STARTCHAR char79
ENCODING 79
SWIDTH 403 0
DWIDTH 7 0
BBX 7 13 0 -3
BITMAP
00
00
78
CC
CC
CC
CC
CC
CC
78
00
00
00
ENDCHAR
STARTCHAR char80
ENCODING 80
SWIDTH 403 0
DWIDTH 7 0
BBX 7 13 0 -3
BITMAP
00
00
F8
CC
CC
CC
F8
C0
C0
C0
00
00
00
ENDCHAR
STARTCHAR char81
ENCODING 81
SWIDTH 403 0
DWIDTH 7 0
BBX 7 13 0 -3
BITMAP
00
00
78
CC
CC
CC
CC
CC
D8
7C
0C
00
00
ENDCHAR
STARTCHAR char82
ENCODING 82
SWIDTH 403 0
DWIDTH 7 0
BBX 7 13 0 -3
BITMAP
00
00
F8
CC
CC
F8
D8
CC
CC
CC
00
00
00
ENDCHAR
STARTCHAR char83
ENCODING 83
SWIDTH 403 0
DWIDTH 7 0
BBX 7 13 0 -3
BITMAP
00
00
78
CC
C0
78
0C
0C
CC
78
00
00
00
ENDCHAR
STARTCHAR char84
ENCODING 84
SWIDTH 403 0
DWIDTH 7 0
BBX 7 13 0 -3
BITMAP
00
00
FC
30
30
30
30
30
30
30
00
00
00
ENDCHAR
STARTCHAR char85
ENCODING 85
SWIDTH 403 0
DWIDTH 7 0
BBX 7 13 0 -3
BITMAP
00
00
CC
CC
CC
CC
CC
CC
CC
78
00
00
00
ENDCHAR
STARTCHAR char86
ENCODING 86
SWIDTH 403 0
DWIDTH 7 0
BBX 7 13 0 -3
BITMAP
00
00
CC
CC
CC
78
78
78
30
30
00
00
00
ENDCHAR
STARTCHAR char87
ENCODING 87
SWIDTH 403 0
DWIDTH 7 0
BBX 7 13 0 -3
BITMAP
00
00
CC
CC
CC
CC
DC
FC
FC
CC
00
00
00
ENDCHAR
STARTCHAR char88
ENCODING 88
SWIDTH 403 0
DWIDTH 7 0
BBX 7 13 0 -3
BITMAP
00
00
CC
CC
78
30
30
78
CC
CC
00
00
00
ENDCHAR
STARTCHAR char89
ENCODING 89
SWIDTH 403 0
DWIDTH 7 0
BBX 7 13 0 -3
BITMAP
00
00
CC
CC
CC
78
30
30
30
30
00
00
00
ENDCHAR
STARTCHAR char90
ENCODING 90
SWIDTH 403 0
DWIDTH 7 0
BBX 7 13 0 -3
BITMAP
00
00
FC
0C
18
30
30
60
C0
FC
00
00
00
ENDCHAR
STARTCHAR char91
ENCODING 91
SWIDTH 403 0
DWIDTH 7 0
BBX 7 13 0 -3
BITMAP
00
78
60
60
60
60
60
60
60
60
60
78
00
ENDCHAR
STARTCHAR char92
ENCODING 92
SWIDTH 403 0
DWIDTH 7 0
BBX 7 13 0 -3
BITMAP
00
C0
C0
60
60
30
30
18
18
0C
0C
00
00
ENDCHAR
STARTCHAR char93
ENCODING 93
SWIDTH 403 0
DWIDTH 7 0
BBX 7 13 0 -3
BITMAP
00
78
18
18
18
18
18
18
18
18
18
78
00
ENDCHAR
STARTCHAR char94
ENCODING 94
SWIDTH 403 0
DWIDTH 7 0
BBX 7 13 0 -3
BITMAP
00
30
78
CC
00
00
00
00
00
00
00
00
00
ENDCHAR
STARTCHAR char95
ENCODING 95
SWIDTH 403 0
DWIDTH 7 0
BBX 7 13 0 -3
BITMAP
00
00
00
00
00
00
00
00
00
00
FE
00
00
ENDCHAR
STARTCHAR char96
ENCODING 96
SWIDTH 403 0
DWIDTH 7 0
BBX 7 13 0 -3
BITMAP
00
60
30
00
00
00
00
00
00
00
00
00
00
ENDCHAR
STARTCHAR char97
ENCODING 97
SWIDTH 403 0
DWIDTH 7 0
BBX 7 13 0 -3
BITMAP
00
00
00
00
78
0C
7C
CC
CC
7C
00
00
00
ENDCHAR
STARTCHAR char98
ENCODING 98
SWIDTH 403 0
DWIDTH 7 0
BBX 7 13 0 -3
BITMAP
00
C0
C0
C0
F8
CC
CC
CC
CC
F8
00
00
00
ENDCHAR
STARTCHAR char99
ENCODING 99
SWIDTH 403 0
DWIDTH 7 0
BBX 7 13 0 -3
BITMAP
00
00
00
00
78
CC
C0
C0
CC
78
00
00
00
ENDCHAR
STARTCHAR char100
ENCODING 100
SWIDTH 403 0
DWIDTH 7 0
BBX 7 13 0 -3
BITMAP
00
0C
0C
0C
7C
CC
CC
CC
CC
7C
00
00
00
ENDCHAR
STARTCHAR char101
ENCODING 101
SWIDTH 403 0
DWIDTH 7 0
BBX 7 13 0 -3
BITMAP
00
00
00
00
78
CC
FC
C0
CC
78
00
00
00
ENDCHAR
STARTCHAR char102
ENCODING 102
SWIDTH 403 0
DWIDTH 7 0
BBX 7 13 0 -3
BITMAP
00
3C
60
60
F8
60
60
60
60
60
00
00
00
ENDCHAR
STARTCHAR char103
ENCODING 103
SWIDTH 403 0
DWIDTH 7 0
BBX 7 13 0 -3
BITMAP
00
00
00
00
7C
CC
CC
CC
CC
7C
0C
0C
78
ENDCHAR
STARTCHAR char104
ENCODING 104
SWIDTH 403 0
DWIDTH 7 0
BBX 7 13 0 -3
BITMAP
00
C0
C0
C0
F8
CC
CC
CC
CC
CC
00
00
00
ENDCHAR
STARTCHAR char105
ENCODING 105
SWIDTH 403 0
DWIDTH 7 0
BBX 7 13 0 -3
BITMAP
00
30
30
00
70
30
30
30
30
78
00
00
00
ENDCHAR
STARTCHAR char106
ENCODING 106
SWIDTH 403 0
DWIDTH 7 0
BBX 7 13 0 -3
BITMAP
00
30
30
00
70
30
30
30
30
30
30
30
E0
ENDCHAR
STARTCHAR char107
ENCODING 107
SWIDTH 403 0
DWIDTH 7 0
BBX 7 13 0 -3
BITMAP
00
C0
C0
C0
CC
D8
F0
F0
D8
CC
00
00
00
ENDCHAR
STARTCHAR char108
ENCODING 108
SWIDTH 403 0
DWIDTH 7 0
BBX 7 13 0 -3
BITMAP
00
70
30
30
30
30
30
30
30
18
00
00
00
ENDCHAR
STARTCHAR char109
ENCODING 109
SWIDTH 403 0
DWIDTH 7 0
BBX 7 13 0 -3
BITMAP
00
00
00
00
CC
FC
FC
EC
CC
CC
00
00
00
ENDCHAR
STARTCHAR char110
ENCODING 110
SWIDTH 403 0
DWIDTH 7 0
BBX 7 13 0 -3
BITMAP
00
00
00
00
F8
CC
CC
CC
CC
CC
00
00
00
ENDCHAR
STARTCHAR char111
ENCODING 111
SWIDTH 403 0
DWIDTH 7 0
BBX 7 13 0 -3
BITMAP
00
00
00
00
78
CC
CC
CC
CC
78
00
00
00
ENDCHAR
STARTCHAR char112
ENCODING 112
SWIDTH 403 0
DWIDTH 7 0
BBX 7 13 0 -3
BITMAP
00
00
00
00
F8
CC
CC
CC
CC
F8
C0
C0
C0
ENDCHAR
STARTCHAR char113
ENCODING 113
SWIDTH 403 0
DWIDTH 7 0
BBX 7 13 0 -3
BITMAP
00
00
00
00
7C
CC
CC
CC
CC
7C
0C
0C
0C
ENDCHAR
STARTCHAR char114
ENCODING 114
SWIDTH 403 0
DWIDTH 7 0
BBX 7 13 0 -3
BITMAP
00
00
00
00
F8
EC
C0
C0
C0
C0
00
00
00
ENDCHAR
STARTCHAR char115
ENCODING 115
SWIDTH 403 0
DWIDTH 7 0
BBX 7 13 0 -3
BITMAP
00
00
00
00
7C
C0
78
0C
0C
F8
00
00
00
ENDCHAR
STARTCHAR char116
ENCODING 116
SWIDTH 403 0
DWIDTH 7 0
BBX 7 13 0 -3
BITMAP
00
00
60
60
F8
60
60
60
60
3C
00
00
00
ENDCHAR
STARTCHAR char117
ENCODING 117
SWIDTH 403 0
DWIDTH 7 0
BBX 7 13 0 -3
BITMAP
00
00
00
00
CC
CC
CC
CC
CC
7C
00
00
00
ENDCHAR
STARTCHAR char118
ENCODING 118
SWIDTH 403 0
DWIDTH 7 0
BBX 7 13 0 -3
BITMAP
00
00
00
00
CC
CC
78
78
30
30
00
00
00
ENDCHAR
STARTCHAR char119
ENCODING 119
SWIDTH 403 0
DWIDTH 7 0
BBX 7 13 0 -3
BITMAP
00
00
00
00
CC
CC
DC
FC
FC
CC
00
00
00
ENDCHAR
STARTCHAR char120
ENCODING 120
SWIDTH 403 0
DWIDTH 7 0
BBX 7 13 0 -3
BITMAP
00
00
00
00
CC
78
30
30
78
CC
00
00
00
ENDCHAR
STARTCHAR char121
ENCODING 121
SWIDTH 403 0
DWIDTH 7 0
BBX 7 13 0 -3
BITMAP
00
00
00
00
CC
CC
CC
CC
CC
7C
0C
0C
78
ENDCHAR
STARTCHAR char122
ENCODING 122
SWIDTH 403 0
DWIDTH 7 0
BBX 7 13 0 -3
BITMAP
00
00
00
00
FC
18
30
60
C0
FC
00
00
00
ENDCHAR
STARTCHAR char123
ENCODING 123
SWIDTH 403 0
DWIDTH 7 0
BBX 7 13 0 -3
BITMAP
00
1C
30
30
30
30
E0
30
30
30
30
1C
00
ENDCHAR
STARTCHAR char124
ENCODING 124
SWIDTH 403 0
DWIDTH 7 0
BBX 7 13 0 -3
BITMAP
00
30
30
30
30
30
30
30
30
30
30
30
00
ENDCHAR
STARTCHAR char125
ENCODING 125
SWIDTH 403 0
DWIDTH 7 0
BBX 7 13 0 -3
BITMAP
00
E0
30
30
30
30
1C
30
30
30
30
E0
00
ENDCHAR
STARTCHAR char126
ENCODING 126
SWIDTH 403 0
DWIDTH 7 0
BBX 7 13 0 -3
BITMAP
00
00
6C
FC
D8
00
00
00
00
00
00
00
00
ENDCHAR
STARTCHAR char161
ENCODING 161
SWIDTH 403 0
DWIDTH 7 0
BBX 7 13 0 -3
BITMAP
00
00
30
00
30
30
30
30
30
30
00
00
00
ENDCHAR
STARTCHAR char162
ENCODING 162
SWIDTH 403 0
DWIDTH 7 0
BBX 7 13 0 -3
BITMAP
00
00
00
30
78
B4
B0
B0
B4
78
30
00
00
ENDCHAR
STARTCHAR char163
ENCODING 163
SWIDTH 403 0
DWIDTH 7 0
BBX 7 13 0 -3
BITMAP
00
00
38
60
60
F8
60
60
C0
FC
00
00
00
ENDCHAR
STARTCHAR char164
ENCODING 164
SWIDTH 403 0
DWIDTH 7 0
BBX 7 13 0 -3
BITMAP
00
00
00
00
CC
78
68
68
78
CC
00
00
00
ENDCHAR
STARTCHAR char165
ENCODING 165
SWIDTH 403 0
DWIDTH 7 0
BBX 7 13 0 -3
BITMAP
00
00
CC
CC
CC
78
30
FC
30
30
00
00
00
ENDCHAR
STARTCHAR char166
ENCODING 166
SWIDTH 403 0
DWIDTH 7 0
BBX 7 13 0 -3
BITMAP
00
30
30
30
30
30
00
30
30
30
30
00
00
ENDCHAR
STARTCHAR char167
ENCODING 167
SWIDTH 403 0
DWIDTH 7 0
BBX 7 13 0 -3
BITMAP
00
78
CC
C0
70
48
38
0C
CC
78
00
00
00
ENDCHAR
STARTCHAR char168
ENCODING 168
SWIDTH 403 0
DWIDTH 7 0
BBX 7 13 0 -3
BITMAP
00
D8
00
00
00
00
00
00
00
00
00
00
00
ENDCHAR
STARTCHAR char169
ENCODING 169
SWIDTH 403 0
DWIDTH 7 0
BBX 7 13 0 -3
BITMAP
00
00
78
CC
FC
EC
EC
FC
CC
78
00
00
00
ENDCHAR
STARTCHAR char170
ENCODING 170
SWIDTH 403 0
DWIDTH 7 0
BBX 7 13 0 -3
BITMAP
00
00
70
18
78
D8
78
00
00
00
00
00
00
ENDCHAR
STARTCHAR char171
ENCODING 171
SWIDTH 403 0
DWIDTH 7 0
BBX 7 13 0 -3
BITMAP
00
00
00
00
34
68
D0
68
34
00
00
00
00
ENDCHAR
STARTCHAR char172
ENCODING 172
SWIDTH 403 0
DWIDTH 7 0
BBX 7 13 0 -3
BITMAP
00
00
00
00
00
00
00
F8
18
18
00
00
00
ENDCHAR
STARTCHAR char174
ENCODING 174
SWIDTH 403 0
DWIDTH 7 0
BBX 7 13 0 -3
BITMAP
00
00
78
CC
FC
EC
FC
EC
CC
78
00
00
00
ENDCHAR
STARTCHAR char175
ENCODING 175
SWIDTH 403 0
DWIDTH 7 0
BBX 7 13 0 -3
BITMAP
FE
00
00
00
00
00
00
00
00
00
00
00
00
ENDCHAR
STARTCHAR char176
ENCODING 176
SWIDTH 403 0
DWIDTH 7 0
BBX 7 13 0 -3
BITMAP
00
70
D8
D8
70
00
00
00
00
00
00
00
00
ENDCHAR
STARTCHAR char177
ENCODING 177
SWIDTH 403 0
DWIDTH 7 0
BBX 7 13 0 -3
BITMAP
00
00
00
30
30
FC
30
30
00
FC
00
00
00
ENDCHAR
STARTCHAR char178
ENCODING 178
SWIDTH 403 0
DWIDTH 7 0
BBX 7 13 0 -3
BITMAP
00
F0
18
30
60
F8
00
00
00
00
00
00
00
ENDCHAR
STARTCHAR char179
ENCODING 179
SWIDTH 403 0
DWIDTH 7 0
BBX 7 13 0 -3
BITMAP
00
F0
18
70
18
F0
00
00
00
00
00
00
00
ENDCHAR
STARTCHAR char180
ENCODING 180
SWIDTH 403 0
DWIDTH 7 0
BBX 7 13 0 -3
BITMAP
00
18
30
00
00
00
00
00
00
00
00
00
00
ENDCHAR
STARTCHAR char181
ENCODING 181
SWIDTH 403 0
DWIDTH 7 0
BBX 7 13 0 -3
BITMAP
00
00
00
00
6C
6C
6C
6C
7C
68
60
C0
00
ENDCHAR
STARTCHAR char182
ENCODING 182
SWIDTH 403 0
DWIDTH 7 0
BBX 7 13 0 -3
BITMAP
00
00
7C
F4
F4
74
34
34
34
34
34
00
00
ENDCHAR
STARTCHAR char183
ENCODING 183
SWIDTH 403 0
DWIDTH 7 0
BBX 7 13 0 -3
BITMAP
00
00
00
00
00
10
38
10
00
00
00
00
00
ENDCHAR
STARTCHAR char184
ENCODING 184
SWIDTH 403 0
DWIDTH 7 0
BBX 7 13 0 -3
BITMAP
00
00
00
00
00
00
00
00
00
70
30
60
00
ENDCHAR
STARTCHAR char185
ENCODING 185
SWIDTH 403 0
DWIDTH 7 0
BBX 7 13 0 -3
BITMAP
00
60
E0
60
60
00
00
00
00
00
00
00
00
ENDCHAR
STARTCHAR char186
ENCODING 186
SWIDTH 403 0
DWIDTH 7 0
BBX 7 13 0 -3
BITMAP
00
70
D8
D8
D8
70
00
00
00
00
00
00
00
ENDCHAR
STARTCHAR char187
ENCODING 187
SWIDTH 403 0
DWIDTH 7 0
BBX 7 13 0 -3
BITMAP
00
00
00
00
B0
58
2C
58
B0
00
00
00
00
ENDCHAR
STARTCHAR char188
ENCODING 188
SWIDTH 403 0
DWIDTH 7 0
BBX 7 13 0 -3
BITMAP
00
00
20
60
24
28
14
2C
54
1C
04
00
00
ENDCHAR
STARTCHAR char189
ENCODING 189
SWIDTH 403 0
DWIDTH 7 0
BBX 7 13 0 -3
BITMAP
00
00
20
60
24
28
10
28
44
08
0C
00
00
ENDCHAR
STARTCHAR char190
ENCODING 190
SWIDTH 403 0
DWIDTH 7 0
BBX 7 13 0 -3
BITMAP
00
20
10
20
14
28
14
2C
54
1C
04
00
00
ENDCHAR
STARTCHAR char191
ENCODING 191
SWIDTH 403 0
DWIDTH 7 0
BBX 7 13 0 -3
BITMAP
00
00
30
30
00
30
60
C0
CC
78
00
00
00
ENDCHAR
STARTCHAR char192
ENCODING 192
SWIDTH 403 0
DWIDTH 7 0
BBX 7 13 0 -3
BITMAP
60
30
00
78
CC
CC
FC
CC
CC
CC
00
00
00
ENDCHAR
STARTCHAR char193
ENCODING 193
SWIDTH 403 0
DWIDTH 7 0
BBX 7 13 0 -3
BITMAP
18
30
00
78
CC
CC
FC
CC
CC
CC
00
00
00
ENDCHAR
STARTCHAR char194
ENCODING 194
SWIDTH 403 0
DWIDTH 7 0
BBX 7 13 0 -3
BITMAP
30
48
00
78
CC
CC
FC
CC
CC
CC
00
00
00
ENDCHAR
STARTCHAR char195
ENCODING 195
SWIDTH 403 0
DWIDTH 7 0
BBX 7 13 0 -3
BITMAP
74
B8
00
78
CC
CC
FC
CC
CC
CC
00
00
00
ENDCHAR
STARTCHAR char196
ENCODING 196
SWIDTH 403 0
DWIDTH 7 0
BBX 7 13 0 -3
BITMAP
00
D8
00
78
CC
CC
FC
CC
CC
CC
00
00
00
ENDCHAR
STARTCHAR char197
ENCODING 197
SWIDTH 403 0
DWIDTH 7 0
BBX 7 13 0 -3
BITMAP
30
48
30
78
CC
CC
FC
CC
CC
CC
00
00
00
ENDCHAR
STARTCHAR char198
ENCODING 198
SWIDTH 403 0
DWIDTH 7 0
BBX 7 13 0 -3
BITMAP
00
00
3C
78
58
DC
F8
D8
D8
DC
00
00
00
ENDCHAR
STARTCHAR char199
ENCODING 199
SWIDTH 403 0
DWIDTH 7 0
BBX 7 13 0 -3
BITMAP
00
00
78
CC
C0
C0
C0
C0
CC
78
30
30
60
ENDCHAR
STARTCHAR char200
ENCODING 200
SWIDTH 403 0
DWIDTH 7 0
BBX 7 13 0 -3
BITMAP
60
30
00
FC
C0
C0
F8
C0
C0
FC
00
00
00
ENDCHAR
STARTCHAR char200
ENCODING 201
SWIDTH 403 0
DWIDTH 7 0
BBX 7 13 0 -3
BITMAP
18
30
00
FC
C0
C0
F8
C0
C0
FC
00
00
00
ENDCHAR
STARTCHAR char202
ENCODING 202
SWIDTH 403 0
DWIDTH 7 0
BBX 7 13 0 -3
BITMAP
30
48
00
FC
C0
C0
F8
C0
C0
FC
00
00
00
ENDCHAR
STARTCHAR char203
ENCODING 203
SWIDTH 403 0
DWIDTH 7 0
BBX 7 13 0 -3
BITMAP
00
D8
00
FC
C0
C0
F8
C0
C0
FC
00
00
00
ENDCHAR
STARTCHAR char204
ENCODING 204
SWIDTH 403 0
DWIDTH 7 0
BBX 7 13 0 -3
BITMAP
60
30
00
78
30
30
30
30
30
78
00
00
00
ENDCHAR
STARTCHAR char205
ENCODING 205
SWIDTH 403 0
DWIDTH 7 0
BBX 7 13 0 -3
BITMAP
18
30
00
78
30
30
30
30
30
78
00
00
00
ENDCHAR
STARTCHAR char206
ENCODING 206
SWIDTH 403 0
DWIDTH 7 0
BBX 7 13 0 -3
BITMAP
30
48
00
78
30
30
30
30
30
78
00
00
00
ENDCHAR
STARTCHAR char207
ENCODING 207
SWIDTH 403 0
DWIDTH 7 0
BBX 7 13 0 -3
BITMAP
00
6C
00
78
30
30
30
30
30
78
00
00
00
ENDCHAR
STARTCHAR char208
ENCODING 208
SWIDTH 403 0
DWIDTH 7 0
BBX 7 13 0 -3
BITMAP
00
00
00
78
6C
6C
FC
6C
6C
78
00
00
00
ENDCHAR
STARTCHAR char209
ENCODING 209
SWIDTH 403 0
DWIDTH 7 0
BBX 7 13 0 -3
BITMAP
74
B8
00
CC
EC
EC
FC
FC
DC
CC
00
00
00
ENDCHAR
STARTCHAR char210
ENCODING 210
SWIDTH 403 0
DWIDTH 7 0
BBX 7 13 0 -3
BITMAP
60
30
00
78
CC
CC
CC
CC
CC
78
00
00
00
ENDCHAR
STARTCHAR char211
ENCODING 211
SWIDTH 403 0
DWIDTH 7 0
BBX 7 13 0 -3
BITMAP
18
30
00
78
CC
CC
CC
CC
CC
78
00
00
00
ENDCHAR
STARTCHAR char212
ENCODING 212
SWIDTH 403 0
DWIDTH 7 0
BBX 7 13 0 -3
BITMAP
30
48
00
78
CC
CC
CC
CC
CC
78
00
00
00
ENDCHAR
STARTCHAR char213
ENCODING 213
SWIDTH 403 0
DWIDTH 7 0
BBX 7 13 0 -3
BITMAP
74
B8
00
78
CC
CC
CC
CC
CC
78
00
00
00
ENDCHAR
STARTCHAR char214
ENCODING 214
SWIDTH 403 0
DWIDTH 7 0
BBX 7 13 0 -3
BITMAP
00
D8
00
78
CC
CC
CC
CC
CC
78
00
00
00
ENDCHAR
STARTCHAR char215
ENCODING 215
SWIDTH 403 0
DWIDTH 7 0
BBX 7 13 0 -3
BITMAP
00
00
00
00
CC
78
30
78
CC
00
00
00
00
ENDCHAR
STARTCHAR char216
ENCODING 216
SWIDTH 403 0
DWIDTH 7 0
BBX 7 13 0 -3
BITMAP
00
00
7C
D8
DC
FC
FC
EC
6C
F8
00
00
00
ENDCHAR
STARTCHAR char217
ENCODING 217
SWIDTH 403 0
DWIDTH 7 0
BBX 7 13 0 -3
BITMAP
60
30
00
CC
CC
CC
CC
CC
CC
78
00
00
00
ENDCHAR
STARTCHAR char218
ENCODING 218
SWIDTH 403 0
DWIDTH 7 0
BBX 7 13 0 -3
BITMAP
18
30
00
CC
CC
CC
CC
CC
CC
78
00
00
00
ENDCHAR
STARTCHAR char219
ENCODING 219
SWIDTH 403 0
DWIDTH 7 0
BBX 7 13 0 -3
BITMAP
30
48
00
CC
CC
CC
CC
CC
CC
78
00
00
00
ENDCHAR
STARTCHAR char220
ENCODING 220
SWIDTH 403 0
DWIDTH 7 0
BBX 7 13 0 -3
BITMAP
00
D8
00
CC
CC
CC
CC
CC
CC
78
00
00
00
ENDCHAR
STARTCHAR char221
ENCODING 221
SWIDTH 403 0
DWIDTH 7 0
BBX 7 13 0 -3
BITMAP
18
30
00
CC
CC
CC
78
30
30
30
00
00
00
ENDCHAR
STARTCHAR char222
ENCODING 222
SWIDTH 403 0
DWIDTH 7 0
BBX 7 13 0 -3
BITMAP
00
00
C0
C0
F8
CC
CC
F8
C0
C0
00
00
00
ENDCHAR
STARTCHAR char223
ENCODING 223
SWIDTH 403 0
DWIDTH 7 0
BBX 7 13 0 -3
BITMAP
00
38
6C
6C
78
6C
6C
6C
6C
78
C0
00
00
ENDCHAR
STARTCHAR char224
ENCODING 224
SWIDTH 403 0
DWIDTH 7 0
BBX 7 13 0 -3
BITMAP
00
60
30
00
78
0C
7C
CC
CC
7C
00
00
00
ENDCHAR
STARTCHAR char225
ENCODING 225
SWIDTH 403 0
DWIDTH 7 0
BBX 7 13 0 -3
BITMAP
00
18
30
00
78
0C
7C
CC
CC
7C
00
00
00
ENDCHAR
STARTCHAR char226
ENCODING 226
SWIDTH 403 0
DWIDTH 7 0
BBX 7 13 0 -3
BITMAP
00
30
48
00
78
0C
7C
CC
CC
7C
00
00
00
ENDCHAR
STARTCHAR char227
ENCODING 227
SWIDTH 403 0
DWIDTH 7 0
BBX 7 13 0 -3
BITMAP
00
74
B8
00
78
0C
7C
CC
CC
7C
00
00
00
ENDCHAR
STARTCHAR char228
ENCODING 228
SWIDTH 403 0
DWIDTH 7 0
BBX 7 13 0 -3
BITMAP
00
D8
00
00
78
0C
7C
CC
CC
7C
00
00
00
ENDCHAR
STARTCHAR char229
ENCODING 229
SWIDTH 403 0
DWIDTH 7 0
BBX 7 13 0 -3
BITMAP
30
48
30
00
78
0C
7C
CC
CC
7C
00
00
00
ENDCHAR
STARTCHAR char230
ENCODING 230
SWIDTH 403 0
DWIDTH 7 0
BBX 7 13 0 -3
BITMAP
00
00
00
00
78
34
7C
B0
B4
78
00
00
00
ENDCHAR
STARTCHAR char231
ENCODING 231
SWIDTH 403 0
DWIDTH 7 0
BBX 7 13 0 -3
BITMAP
00
00
00
00
78
CC
C0
C0
CC
78
30
30
60
ENDCHAR
STARTCHAR char232
ENCODING 232
SWIDTH 403 0
DWIDTH 7 0
BBX 7 13 0 -3
BITMAP
00
60
30
00
78
CC
FC
C0
CC
78
00
00
00
ENDCHAR
STARTCHAR char233
ENCODING 233
SWIDTH 403 0
DWIDTH 7 0
BBX 7 13 0 -3
BITMAP
00
18
30
00
78
CC
FC
C0
CC
78
00
00
00
ENDCHAR
STARTCHAR char234
ENCODING 234
SWIDTH 403 0
DWIDTH 7 0
BBX 7 13 0 -3
BITMAP
00
30
48
00
78
CC
FC
C0
CC
78
00
00
00
ENDCHAR
STARTCHAR char235
ENCODING 235
SWIDTH 403 0
DWIDTH 7 0
BBX 7 13 0 -3
BITMAP
00
D8
00
00
78
CC
FC
C0
CC
78
00
00
00
ENDCHAR
STARTCHAR char236
ENCODING 236
SWIDTH 403 0
DWIDTH 7 0
BBX 7 13 0 -3
BITMAP
00
60
30
00
70
30
30
30
30
78
00
00
00
ENDCHAR
STARTCHAR char237
ENCODING 237
SWIDTH 403 0
DWIDTH 7 0
BBX 7 13 0 -3
BITMAP
00
18
30
00
70
30
30
30
30
78
00
00
00
ENDCHAR
STARTCHAR char238
ENCODING 238
SWIDTH 403 0
DWIDTH 7 0
BBX 7 13 0 -3
BITMAP
00
30
48
00
70
30
30
30
30
78
00
00
00
ENDCHAR
STARTCHAR char239
ENCODING 239
SWIDTH 403 0
DWIDTH 7 0
BBX 7 13 0 -3
BITMAP
00
D8
00
00
70
30
30
30
30
78
00
00
00
ENDCHAR
STARTCHAR char240
ENCODING 240
SWIDTH 403 0
DWIDTH 7 0
BBX 7 13 0 -3
BITMAP
00
74
18
2C
0C
7C
CC
CC
CC
78
00
00
00
ENDCHAR
STARTCHAR char241
ENCODING 241
SWIDTH 403 0
DWIDTH 7 0
BBX 7 13 0 -3
BITMAP
00
74
B8
00
F8
EC
CC
CC
CC
CC
00
00
00
ENDCHAR
STARTCHAR char242
ENCODING 242
SWIDTH 403 0
DWIDTH 7 0
BBX 7 13 0 -3
BITMAP
00
60
30
00
78
CC
CC
CC
CC
78
00
00
00
ENDCHAR
STARTCHAR char243
ENCODING 243
SWIDTH 403 0
DWIDTH 7 0
BBX 7 13 0 -3
BITMAP
00
18
30
00
78
CC
CC
CC
CC
78
00
00
00
ENDCHAR
STARTCHAR char244
ENCODING 244
SWIDTH 403 0
DWIDTH 7 0
BBX 7 13 0 -3
BITMAP
00
30
48
00
78
CC
CC
CC
CC
78
00
00
00
ENDCHAR
STARTCHAR char245
ENCODING 245
SWIDTH 403 0
DWIDTH 7 0
BBX 7 13 0 -3
BITMAP
00
74
B8
00
78
CC
CC
CC
CC
78
00
00
00
ENDCHAR
STARTCHAR char246
ENCODING 246
SWIDTH 403 0
DWIDTH 7 0
BBX 7 13 0 -3
BITMAP
00
D8
00
00
78
CC
CC
CC
CC
78
00
00
00
ENDCHAR
STARTCHAR char247
ENCODING 247
SWIDTH 403 0
DWIDTH 7 0
BBX 7 13 0 -3
BITMAP
00
00
00
30
30
00
FC
00
30
30
00
00
00
ENDCHAR
STARTCHAR char248
ENCODING 248
SWIDTH 403 0
DWIDTH 7 0
BBX 7 13 0 -3
BITMAP
00
00
00
0C
78
DC
DC
EC
EC
78
C0
00
00
ENDCHAR
STARTCHAR char249
ENCODING 249
SWIDTH 403 0
DWIDTH 7 0
BBX 7 13 0 -3
BITMAP
00
60
30
00
CC
CC
CC
CC
CC
7C
00
00
00
ENDCHAR
STARTCHAR char250
ENCODING 250
SWIDTH 403 0
DWIDTH 7 0
BBX 7 13 0 -3
BITMAP
00
18
30
00
CC
CC
CC
CC
CC
7C
00
00
00
ENDCHAR
STARTCHAR char251
ENCODING 251
SWIDTH 403 0
DWIDTH 7 0
BBX 7 13 0 -3
BITMAP
00
30
48
00
CC
CC
CC
CC
CC
7C
00
00
00
ENDCHAR
STARTCHAR char252
ENCODING 252
SWIDTH 403 0
DWIDTH 7 0
BBX 7 13 0 -3
BITMAP
00
D8
00
00
CC
CC
CC
CC
CC
7C
00
00
00
ENDCHAR
STARTCHAR char253
ENCODING 253
SWIDTH 403 0
DWIDTH 7 0
BBX 7 13 0 -3
BITMAP
00
18
30
00
CC
CC
CC
CC
CC
7C
0C
0C
78
ENDCHAR
STARTCHAR char254
ENCODING 254
SWIDTH 403 0
DWIDTH 7 0
BBX 7 13 0 -3
BITMAP
00
00
C0
C0
F8
CC
CC
CC
CC
F8
C0
C0
00
ENDCHAR
STARTCHAR char255
ENCODING 255
SWIDTH 403 0
DWIDTH 7 0
BBX 7 13 0 -3
BITMAP
00
00
D8
00
CC
CC
CC
CC
DC
7C
0C
0C
78
ENDCHAR
STARTCHAR char402
ENCODING 402
SWIDTH 403 0
DWIDTH 7 0
BBX 7 13 0 -3
BITMAP
00
1C
30
30
7C
30
30
30
30
30
E0
00
00
ENDCHAR
STARTCHAR char955
ENCODING 955
SWIDTH 403 0
DWIDTH 7 0
BBX 7 13 0 -3
BITMAP
00
00
E0
30
30
30
78
78
CC
CC
00
00
00
ENDCHAR
STARTCHAR char960
ENCODING 960
SWIDTH 403 0
DWIDTH 7 0
BBX 7 13 0 -3
BITMAP
00
00
00
00
FC
68
68
68
68
64
00
00
00
ENDCHAR
STARTCHAR char961
ENCODING 961
SWIDTH 403 0
DWIDTH 7 0
BBX 7 13 0 -3
BITMAP
00
00
00
00
78
CC
CC
CC
EC
F8
C0
C0
C0
ENDCHAR
STARTCHAR char962
ENCODING 962
SWIDTH 403 0
DWIDTH 7 0
BBX 7 13 0 -3
BITMAP
00
00
00
00
78
CC
C0
C0
C0
7C
0C
0C
18
ENDCHAR
STARTCHAR char963
ENCODING 963
SWIDTH 403 0
DWIDTH 7 0
BBX 7 13 0 -3
BITMAP
00
00
00
00
7C
D8
CC
CC
CC
78
00
00
00
ENDCHAR
STARTCHAR char964
ENCODING 964
SWIDTH 403 0
DWIDTH 7 0
BBX 7 13 0 -3
BITMAP
00
00
00
00
FC
30
30
30
30
1C
00
00
00
ENDCHAR
STARTCHAR char965
ENCODING 965
SWIDTH 403 0
DWIDTH 7 0
BBX 7 13 0 -3
BITMAP
00
00
00
00
D8
CC
CC
CC
D8
70
00
00
00
ENDCHAR
STARTCHAR char966
ENCODING 966
SWIDTH 403 0
DWIDTH 7 0
BBX 7 13 0 -3
BITMAP
00
00
00
00
38
B4
B4
B4
B4
78
30
30
30
ENDCHAR
STARTCHAR char7838
ENCODING 7838
SWIDTH 403 0
DWIDTH 7 0
BBX 7 13 0 -3
BITMAP
00
00
30
48
48
50
4C
44
44
58
40
40
40
ENDCHAR
STARTCHAR char8211
ENCODING 8211
SWIDTH 403 0
DWIDTH 7 0
BBX 7 13 0 -3
BITMAP
00
00
00
00
00
00
FC
00
00
00
00
00
00
ENDCHAR
STARTCHAR char8212
ENCODING 8212
SWIDTH 403 0
DWIDTH 7 0
BBX 7 13 0 -3
BITMAP
00
00
00
00
00
00
FE
00
00
00
00
00
00
ENDCHAR
STARTCHAR char8216
ENCODING 8216
SWIDTH 403 0
DWIDTH 7 0
BBX 7 13 0 -3
BITMAP
00
00
10
20
20
30
00
00
00
00
00
00
00
ENDCHAR
STARTCHAR char8217
ENCODING 8217
SWIDTH 403 0
DWIDTH 7 0
BBX 7 13 0 -3
BITMAP
00
00
30
10
10
20
00
00
00
00
00
00
00
ENDCHAR
STARTCHAR char8218
ENCODING 8218
SWIDTH 403 0
DWIDTH 7 0
BBX 7 13 0 -3
BITMAP
00
00
00
00
00
00
00
00
30
10
10
20
00
ENDCHAR
STARTCHAR char8220
ENCODING 8220
SWIDTH 403 0
DWIDTH 7 0
BBX 7 13 0 -3
BITMAP
00
00
24
48
48
6C
00
00
00
00
00
00
00
ENDCHAR
STARTCHAR char8221
ENCODING 8221
SWIDTH 403 0
DWIDTH 7 0
BBX 7 13 0 -3
BITMAP
00
00
6C
24
24
48
00
00
00
00
00
00
00
ENDCHAR
STARTCHAR char8222
ENCODING 8222
SWIDTH 403 0
DWIDTH 7 0
BBX 7 13 0 -3
BITMAP
00
00
00
00
00
00
00
00
6C
24
24
48
00
ENDCHAR
STARTCHAR char8230
ENCODING 8230
SWIDTH 403 0
DWIDTH 7 0
BBX 7 13 0 -3
BITMAP
00
00
00
00
00
00
00
00
92
92
00
00
00
ENDCHAR
STARTCHAR char8249
ENCODING 8249
SWIDTH 403 0
DWIDTH 7 0
BBX 7 13 0 -3
BITMAP
00
00
00
10
20
40
20
10
00
00
00
00
00
ENDCHAR
STARTCHAR char8250
ENCODING 8250
SWIDTH 403 0
DWIDTH 7 0
BBX 7 13 0 -3
BITMAP
00
00
00
00
20
10
08
10
20
00
00
00
00
ENDCHAR
STARTCHAR char8592
ENCODING 8592
SWIDTH 403 0
DWIDTH 7 0
BBX 7 13 0 -3
BITMAP
00
00
00
10
20
7C
20
10
00
00
00
00
00
ENDCHAR
STARTCHAR char8734
ENCODING 8734
SWIDTH 403 0
DWIDTH 7 0
BBX 7 13 0 -3
BITMAP
00
00
00
00
28
54
54
28
00
00
00
00
00
ENDCHAR
STARTCHAR char9837
ENCODING 9837
SWIDTH 403 0
DWIDTH 7 0
BBX 7 13 0 -3
BITMAP
00
10
18
14
18
00
00
00
00
00
00
00
00
ENDCHAR
STARTCHAR char9839
ENCODING 9839
SWIDTH 403 0
DWIDTH 7 0
BBX 7 13 0 -3
BITMAP
00
28
7C
28
7C
28
00
00
00
00
00
00
00
ENDCHAR
STARTCHAR char57504
ENCODING 57504
SWIDTH 403 0
DWIDTH 7 0
BBX 7 13 0 -3
BITMAP
00
00
60
68
6C
68
68
48
10
20
40
40
00
ENDCHAR
STARTCHAR char57505
ENCODING 57505
SWIDTH 403 0
DWIDTH 7 0
BBX 7 13 0 -3
BITMAP
00
C0
C0
C0
F0
00
64
74
6C
64
00
00
00
ENDCHAR
STARTCHAR char57506
ENCODING 57506
SWIDTH 403 0
DWIDTH 7 0
BBX 7 13 0 -3
BITMAP
00
10
28
28
28
7C
7C
7C
7C
7C
00
00
00
ENDCHAR
STARTCHAR char57507
ENCODING 57507
SWIDTH 403 0
DWIDTH 7 0
BBX 7 13 0 -3
BITMAP
00
70
C0
C0
70
00
64
74
6C
64
00
00
00
ENDCHAR
STARTCHAR char57520
ENCODING 57520
SWIDTH 403 0
DWIDTH 7 0
BBX 7 13 0 -3
BITMAP
80
C0
E0
F0
F8
FC
FE
FC
F8
F0
E0
C0
80
ENDCHAR
STARTCHAR char57521
ENCODING 57521
SWIDTH 403 0
DWIDTH 7 0
BBX 7 13 0 -3
BITMAP
80
40
20
10
08
04
02
04
08
10
20
40
80
ENDCHAR
STARTCHAR char57522
ENCODING 57522
SWIDTH 403 0
DWIDTH 7 0
BBX 7 13 0 -3
BITMAP
02
06
0E
1E
3E
7E
FE
7E
3E
1E
0E
06
02
ENDCHAR
STARTCHAR char57523
ENCODING 57523
SWIDTH 403 0
DWIDTH 7 0
BBX 7 13 0 -3
BITMAP
02
04
08
10
20
40
80
40
20
10
08
04
02
ENDCHAR
ENDFONT
